<svg xmlns="http://www.w3.org/2000/svg" version="1.1" xmlns:xlink="http://www.w3.org/1999/xlink" xmlns:svgjs="http://svgjs.dev/svgjs" width="2000" height="1500" viewBox="0 0 2000 1500"><rect width="2000" height="1500" fill="#35185a"></rect><g transform="matrix(0.75,0,0,0.75,249.67638483964993,0.05154664723022506)"><svg viewBox="0 0 343 343" data-background-color="#35185a" preserveAspectRatio="xMidYMid meet" height="1999" width="2000" xmlns="http://www.w3.org/2000/svg" xmlns:xlink="http://www.w3.org/1999/xlink"><g id="tight-bounds" transform="matrix(1,0,0,1,0.0740000000000407,0.07400000000001228)"><svg viewBox="0 0 342.85155851775386 342.85155851775386" height="342.85155851775386" width="342.85155851775386"><g><svg></svg></g><g><svg viewBox="0 0 342.85155851775386 342.85155851775386" height="342.85155851775386" width="342.85155851775386"><g><path d="M0 171.426c0-94.676 76.75-171.426 171.426-171.426 94.676 0 171.426 76.75 171.426 171.426 0 94.676-76.75 171.426-171.426 171.426-94.676 0-171.426-76.75-171.426-171.426zM171.426 338.032c92.014 0 166.606-74.592 166.606-166.606 0-92.014-74.592-166.606-166.606-166.607-92.014 0-166.606 74.592-166.607 166.607 0 92.014 74.592 166.606 166.607 166.606z" data-fill-palette-color="tertiary" fill="#ffffff" stroke="transparent"></path><ellipse rx="164.56874808852186" ry="164.56874808852186" cx="171.42577925887693" cy="171.42577925887693" fill="#ffffff" stroke="transparent" stroke-width="0" fill-opacity="1" data-fill-palette-color="tertiary"></ellipse></g><g transform="matrix(1,0,0,1,64.84655864529837,101.51160378131021)"><svg viewBox="0 0 213.1584412271571 139.82835095513343" height="139.82835095513343" width="213.1584412271571"><g><svg viewBox="0 0 213.1584412271571 139.82835095513343" height="139.82835095513343" width="213.1584412271571"><g><svg viewBox="0 0 213.1584412271571 139.82835095513343" height="139.82835095513343" width="213.1584412271571"><g transform="matrix(1,0,0,1,0,86.38626679911157)"><svg viewBox="0 0 213.1584412271571 53.44208415602186" height="53.44208415602186" width="213.1584412271571"><g id="textblocktransform"><svg viewBox="0 0 213.1584412271571 53.44208415602186" height="53.44208415602186" width="213.1584412271571" id="textblock"><g><svg viewBox="0 0 213.1584412271571 53.44208415602186" height="53.44208415602186" width="213.1584412271571"><g transform="matrix(1,0,0,1,0,0)"><svg width="213.1584412271571" viewBox="3 -35.05 139.79 35.05" height="53.44208415602186" data-palette-color="#35185a"><path d="M7.45-12.8L7.45 0 3 0 3-22Q3-27.4 6.48-31.2 9.95-35 15.45-35L15.45-35 26.9-35 26.9 0 22.2 0 22.2-30.6 15.45-30.6Q11.8-30.6 9.63-28.45 7.45-26.3 7.45-21.6L7.45-21.6 7.45-17.35Q10.25-20.3 15.45-20.3L15.45-20.3 20-20.3 20-15.9 15.45-15.9Q12.55-15.9 10.73-15.2 8.9-14.5 7.45-12.8L7.45-12.8ZM45.2-24L45.2-19.8 39.45-19.8 39.45 0 34.95 0 34.95-19.8 31.55-19.8 33.55-24 34.95-24Q34.95-29.1 38.4-32.08 41.85-35.05 47.2-35.05L47.2-35.05 47.2-30.85Q39.45-30.85 39.45-24L39.45-24 45.2-24ZM57-24L65.85-24 65.85-19.8 57-19.8Q55.55-19.8 54.5-19.25 53.45-18.7 53.45-17.7L53.45-17.7Q53.45-17.1 53.7-16.63 53.95-16.15 54.27-15.85 54.6-15.55 55.27-15.23 55.95-14.9 56.32-14.78 56.7-14.65 59.5-13.75 62.3-12.85 63.65-12.25 65-11.65 65.72-10.63 66.45-9.6 66.65-8.63 66.85-7.65 66.85-6.7L66.85-6.7Q66.85 0 57.65 0L57.65 0 49 0 49-4.2 57.65-4.2Q62.35-4.2 62.35-6.7L62.35-6.7Q62.35-7.9 60.97-8.7 59.6-9.5 57.62-10.05 55.65-10.6 53.67-11.33 51.7-12.05 50.32-13.68 48.95-15.3 48.95-17.7L48.95-17.7Q48.95-20.75 51.3-22.38 53.65-24 57-24L57-24ZM85.19-14.1L85.19-14.1 85.19-9.6Q83.29-11.05 80.54-11.05L80.54-11.05Q78.19-11.05 76.89-10.13 75.59-9.2 75.59-7.5L75.59-7.5Q75.59-4.2 80.49-4.2L80.49-4.2 87.09-4.2 87.09-13.75Q87.09-19.8 81.19-19.8L81.19-19.8 73.19-19.8 73.19-24 81.44-24Q86.29-24 88.89-21.6 91.49-19.2 91.49-14.7L91.49-14.7 91.49 0 80.34 0Q76.09 0 73.59-1.9 71.09-3.8 71.09-7.45 71.09-11.1 73.74-13 76.39-14.9 80.39-14.9L80.39-14.9Q82.64-14.9 85.19-14.1ZM97.24 0L97.24-24 105.89-24Q111.44-24 113.84-22.35L113.84-22.35Q115.99-20.9 116.57-18.88 117.14-16.85 117.14-13.55L117.14-13.55 117.14 0 112.74 0 112.74-13.5Q112.74-14.4 112.69-15.03 112.64-15.65 112.34-16.63 112.04-17.6 111.49-18.23 110.94-18.85 109.89-19.33 108.84-19.8 107.34-19.8L107.34-19.8 101.64-19.8 101.64 0 97.24 0ZM136.49-14.1L136.49-14.1 136.49-9.6Q134.59-11.05 131.84-11.05L131.84-11.05Q129.49-11.05 128.19-10.13 126.89-9.2 126.89-7.5L126.89-7.5Q126.89-4.2 131.79-4.2L131.79-4.2 138.39-4.2 138.39-13.75Q138.39-19.8 132.49-19.8L132.49-19.8 124.49-19.8 124.49-24 132.74-24Q137.59-24 140.19-21.6 142.79-19.2 142.79-14.7L142.79-14.7 142.79 0 131.64 0Q127.39 0 124.89-1.9 122.39-3.8 122.39-7.45 122.39-11.1 125.04-13 127.69-14.9 131.69-14.9L131.69-14.9Q133.94-14.9 136.49-14.1Z" opacity="1" transform="matrix(1,0,0,1,0,0)" fill="#35185a" class="wordmark-text-0" data-fill-palette-color="quaternary" id="text-0"></path></svg></g></svg></g></svg></g></svg></g><g transform="matrix(1,0,0,1,40.713262274387006,0)"><svg viewBox="0 0 131.7319166783831 73.76987333989454" height="73.76987333989454" width="131.7319166783831"><g><svg version="1.1" xmlns="http://www.w3.org/2000/svg" xmlns:xlink="http://www.w3.org/1999/xlink" x="0" y="0" viewBox="0 0 100 56" enable-background="new 0 0 100 56" xml:space="preserve" height="73.76987333989454" width="131.7319166783831" class="icon-icon-0" data-fill-palette-color="quaternary" id="icon-0"><path d="M57 51v1c0 0.553-0.447 1-1 1H44c-0.553 0-1-0.447-1-1v-1H0v2c0 0 0 3 3 3h94c3 0 3-3 3-3v-2H57z" fill="#35185a" data-fill-palette-color="quaternary"></path><path d="M85 0H15c-1.658 0-3 1.343-3 3v1 41c0 1.657 1.342 3 3 3h1 68 1c1.656 0 3-1.343 3-3V4 3C88 1.343 86.657 0 85 0zM84 44H16V4h68V44z" fill="#35185a" data-fill-palette-color="quaternary"></path></svg></g></svg></g><g></g></svg></g></svg></g></svg></g></svg></g><defs></defs></svg><rect width="342.85155851775386" height="342.85155851775386" fill="none" stroke="none" visibility="hidden"></rect></g></svg></g></svg>